<svg xmlns="http://www.w3.org/2000/svg" xmlns:xlink="http://www.w3.org/1999/xlink" width="160" zoomAndPan="magnify" viewBox="0 0 120 74.999997" height="100" preserveAspectRatio="xMidYMid meet" version="1.0"><defs><g/></defs><g fill="#000000" fill-opacity="1"><g transform="translate(0.542297, 48.633617)"><g><path d="M 17.40625 -2.609375 C 17.132812 -2.273438 16.753906 -1.929688 16.265625 -1.578125 C 15.785156 -1.234375 15.210938 -0.921875 14.546875 -0.640625 C 13.890625 -0.359375 13.148438 -0.128906 12.328125 0.046875 C 11.515625 0.222656 10.632812 0.3125 9.6875 0.3125 C 8.414062 0.3125 7.265625 0.0859375 6.234375 -0.359375 C 5.210938 -0.816406 4.335938 -1.46875 3.609375 -2.3125 C 2.878906 -3.164062 2.316406 -4.210938 1.921875 -5.453125 C 1.535156 -6.691406 1.34375 -8.09375 1.34375 -9.65625 L 1.34375 -12.703125 C 1.34375 -14.273438 1.546875 -15.675781 1.953125 -16.90625 C 2.367188 -18.144531 2.941406 -19.191406 3.671875 -20.046875 C 4.410156 -20.910156 5.273438 -21.566406 6.265625 -22.015625 C 7.253906 -22.472656 8.328125 -22.703125 9.484375 -22.703125 C 10.742188 -22.703125 11.84375 -22.539062 12.78125 -22.21875 C 13.726562 -21.90625 14.523438 -21.445312 15.171875 -20.84375 C 15.816406 -20.25 16.320312 -19.519531 16.6875 -18.65625 C 17.050781 -17.789062 17.285156 -16.820312 17.390625 -15.75 L 13.1875 -15.75 C 13.039062 -16.894531 12.691406 -17.753906 12.140625 -18.328125 C 11.597656 -18.910156 10.75 -19.203125 9.59375 -19.203125 C 9.039062 -19.203125 8.53125 -19.0625 8.0625 -18.78125 C 7.59375 -18.5 7.179688 -18.085938 6.828125 -17.546875 C 6.484375 -17.003906 6.207031 -16.328125 6 -15.515625 C 5.789062 -14.710938 5.6875 -13.785156 5.6875 -12.734375 L 5.6875 -9.65625 C 5.695312 -7.5625 6.046875 -5.957031 6.734375 -4.84375 C 7.421875 -3.738281 8.472656 -3.179688 9.890625 -3.171875 C 10.222656 -3.171875 10.550781 -3.195312 10.875 -3.25 C 11.207031 -3.300781 11.519531 -3.367188 11.8125 -3.453125 C 12.101562 -3.546875 12.359375 -3.648438 12.578125 -3.765625 C 12.796875 -3.890625 12.960938 -4.019531 13.078125 -4.15625 L 13.09375 -8.21875 L 9.375 -8.21875 L 9.375 -11.4375 L 17.390625 -11.4375 Z M 17.40625 -2.609375 "/></g></g></g><g fill="#000000" fill-opacity="1"><g transform="translate(19.448331, 48.633617)"><g><path d="M 15.796875 -9.8125 L 6.59375 -9.8125 L 6.59375 -3.484375 L 17.34375 -3.484375 L 17.34375 0 L 2.265625 0 L 2.265625 -22.390625 L 17.296875 -22.390625 L 17.296875 -18.875 L 6.59375 -18.875 L 6.59375 -13.234375 L 15.796875 -13.234375 Z M 15.796875 -9.8125 "/></g></g></g><g fill="#000000" fill-opacity="1"><g transform="translate(38.354365, 48.633617)"><g><path d="M 17.40625 -2.609375 C 17.132812 -2.273438 16.753906 -1.929688 16.265625 -1.578125 C 15.785156 -1.234375 15.210938 -0.921875 14.546875 -0.640625 C 13.890625 -0.359375 13.148438 -0.128906 12.328125 0.046875 C 11.515625 0.222656 10.632812 0.3125 9.6875 0.3125 C 8.414062 0.3125 7.265625 0.0859375 6.234375 -0.359375 C 5.210938 -0.816406 4.335938 -1.46875 3.609375 -2.3125 C 2.878906 -3.164062 2.316406 -4.210938 1.921875 -5.453125 C 1.535156 -6.691406 1.34375 -8.09375 1.34375 -9.65625 L 1.34375 -12.703125 C 1.34375 -14.273438 1.546875 -15.675781 1.953125 -16.90625 C 2.367188 -18.144531 2.941406 -19.191406 3.671875 -20.046875 C 4.410156 -20.910156 5.273438 -21.566406 6.265625 -22.015625 C 7.253906 -22.472656 8.328125 -22.703125 9.484375 -22.703125 C 10.742188 -22.703125 11.84375 -22.539062 12.78125 -22.21875 C 13.726562 -21.90625 14.523438 -21.445312 15.171875 -20.84375 C 15.816406 -20.25 16.320312 -19.519531 16.6875 -18.65625 C 17.050781 -17.789062 17.285156 -16.820312 17.390625 -15.75 L 13.1875 -15.75 C 13.039062 -16.894531 12.691406 -17.753906 12.140625 -18.328125 C 11.597656 -18.910156 10.75 -19.203125 9.59375 -19.203125 C 9.039062 -19.203125 8.53125 -19.0625 8.0625 -18.78125 C 7.59375 -18.5 7.179688 -18.085938 6.828125 -17.546875 C 6.484375 -17.003906 6.207031 -16.328125 6 -15.515625 C 5.789062 -14.710938 5.6875 -13.785156 5.6875 -12.734375 L 5.6875 -9.65625 C 5.695312 -7.5625 6.046875 -5.957031 6.734375 -4.84375 C 7.421875 -3.738281 8.472656 -3.179688 9.890625 -3.171875 C 10.222656 -3.171875 10.550781 -3.195312 10.875 -3.25 C 11.207031 -3.300781 11.519531 -3.367188 11.8125 -3.453125 C 12.101562 -3.546875 12.359375 -3.648438 12.578125 -3.765625 C 12.796875 -3.890625 12.960938 -4.019531 13.078125 -4.15625 L 13.09375 -8.21875 L 9.375 -8.21875 L 9.375 -11.4375 L 17.390625 -11.4375 Z M 17.40625 -2.609375 "/></g></g></g><g fill="#000000" fill-opacity="1"><g transform="translate(57.260399, 48.633617)"><g><path d="M 13.640625 -5.84375 C 13.640625 -6.238281 13.570312 -6.609375 13.4375 -6.953125 C 13.300781 -7.304688 13.066406 -7.632812 12.734375 -7.9375 C 12.398438 -8.238281 11.960938 -8.515625 11.421875 -8.765625 C 10.878906 -9.023438 10.207031 -9.257812 9.40625 -9.46875 C 8.4375 -9.738281 7.507812 -10.070312 6.625 -10.46875 C 5.738281 -10.875 4.957031 -11.359375 4.28125 -11.921875 C 3.601562 -12.484375 3.0625 -13.140625 2.65625 -13.890625 C 2.25 -14.640625 2.046875 -15.5 2.046875 -16.46875 C 2.046875 -17.414062 2.242188 -18.269531 2.640625 -19.03125 C 3.046875 -19.800781 3.601562 -20.457031 4.3125 -21 C 5.019531 -21.550781 5.851562 -21.972656 6.8125 -22.265625 C 7.78125 -22.554688 8.828125 -22.703125 9.953125 -22.703125 C 11.117188 -22.703125 12.1875 -22.53125 13.15625 -22.1875 C 14.125 -21.851562 14.957031 -21.378906 15.65625 -20.765625 C 16.351562 -20.160156 16.894531 -19.4375 17.28125 -18.59375 C 17.675781 -17.75 17.875 -16.828125 17.875 -15.828125 L 13.65625 -15.828125 C 13.632812 -16.328125 13.546875 -16.785156 13.390625 -17.203125 C 13.234375 -17.628906 13 -17.992188 12.6875 -18.296875 C 12.375 -18.597656 11.984375 -18.832031 11.515625 -19 C 11.046875 -19.164062 10.5 -19.25 9.875 -19.25 C 9.300781 -19.25 8.789062 -19.179688 8.34375 -19.046875 C 7.894531 -18.910156 7.515625 -18.71875 7.203125 -18.46875 C 6.898438 -18.21875 6.671875 -17.921875 6.515625 -17.578125 C 6.359375 -17.234375 6.28125 -16.859375 6.28125 -16.453125 C 6.28125 -16.035156 6.382812 -15.65625 6.59375 -15.3125 C 6.800781 -14.976562 7.101562 -14.675781 7.5 -14.40625 C 7.90625 -14.132812 8.390625 -13.882812 8.953125 -13.65625 C 9.523438 -13.425781 10.171875 -13.21875 10.890625 -13.03125 C 11.910156 -12.726562 12.851562 -12.363281 13.71875 -11.9375 C 14.582031 -11.507812 15.320312 -11 15.9375 -10.40625 C 16.5625 -9.8125 17.046875 -9.140625 17.390625 -8.390625 C 17.734375 -7.640625 17.90625 -6.800781 17.90625 -5.875 C 17.90625 -4.894531 17.707031 -4.019531 17.3125 -3.25 C 16.914062 -2.488281 16.367188 -1.84375 15.671875 -1.3125 C 14.972656 -0.78125 14.140625 -0.378906 13.171875 -0.109375 C 12.210938 0.160156 11.164062 0.296875 10.03125 0.296875 C 9.320312 0.296875 8.613281 0.226562 7.90625 0.09375 C 7.207031 -0.03125 6.535156 -0.222656 5.890625 -0.484375 C 5.253906 -0.753906 4.660156 -1.085938 4.109375 -1.484375 C 3.554688 -1.890625 3.078125 -2.359375 2.671875 -2.890625 C 2.265625 -3.421875 1.945312 -4.023438 1.71875 -4.703125 C 1.488281 -5.378906 1.375 -6.128906 1.375 -6.953125 L 5.609375 -6.953125 C 5.628906 -6.273438 5.75 -5.691406 5.96875 -5.203125 C 6.1875 -4.722656 6.484375 -4.328125 6.859375 -4.015625 C 7.242188 -3.710938 7.707031 -3.488281 8.25 -3.34375 C 8.789062 -3.207031 9.382812 -3.140625 10.03125 -3.140625 C 10.601562 -3.140625 11.113281 -3.203125 11.5625 -3.328125 C 12.007812 -3.460938 12.382812 -3.648438 12.6875 -3.890625 C 13 -4.128906 13.234375 -4.414062 13.390625 -4.75 C 13.554688 -5.082031 13.640625 -5.445312 13.640625 -5.84375 Z M 13.640625 -5.84375 "/></g></g></g><g fill="#000000" fill-opacity="1"><g transform="translate(76.166433, 48.633617)"><g><path d="M 17.15625 -8.15625 L 4.34375 -8.15625 L 4.34375 -11.609375 L 17.15625 -11.609375 Z M 17.15625 -8.15625 "/></g></g></g><g fill="#000000" fill-opacity="1"><g transform="translate(95.072467, 48.633617)"><g><path d="M 15.796875 -9.8125 L 6.59375 -9.8125 L 6.59375 -3.484375 L 17.34375 -3.484375 L 17.34375 0 L 2.265625 0 L 2.265625 -22.390625 L 17.296875 -22.390625 L 17.296875 -18.875 L 6.59375 -18.875 L 6.59375 -13.234375 L 15.796875 -13.234375 Z M 15.796875 -9.8125 "/></g></g></g></svg>